STARTFONT 2.1
COMMENT
COMMENT Converted from TrueType font "youngatheart.ttf" by "ttf2bdf 2.9".
COMMENT
FONT -FreeType-Young at heart-Normal-R-Normal--25-180-100-100-P-100-ISO10646-1
SIZE 18 100 100
FONTBOUNDINGBOX 15 25 0 -5
STARTPROPERTIES 19
FOUNDRY "FreeType"
FAMILY_NAME "Young at heart"
WEIGHT_NAME "Normal"
SLANT "R"
SETWIDTH_NAME "Normal"
ADD_STYLE_NAME ""
PIXEL_SIZE 25
POINT_SIZE 180
RESOLUTION_X 100
RESOLUTION_Y 100
SPACING "P"
AVERAGE_WIDTH 100
CHARSET_REGISTRY "ISO10646"
CHARSET_ENCODING "1"
FONT_ASCENT 20
FONT_DESCENT 5
COPYRIGHT "Generated by Fontographer 4.1"
_TTF_FONTFILE "youngatheart.ttf"
_TTF_PSNAME "Youngatheart"
ENDPROPERTIES
CHARS 94
STARTCHAR 0020
ENCODING 32
SWIDTH 240 0
DWIDTH 6 0
BBX 0 0 0 0
BITMAP
ENDCHAR
STARTCHAR 0021
ENCODING 33
SWIDTH 240 0
DWIDTH 6 0
BBX 5 18 0 0
BITMAP
F8
F8
F8
F8
F8
F8
F8
F8
F8
F8
F8
F8
F8
00
00
F8
F8
F8
ENDCHAR
STARTCHAR 0022
ENCODING 34
SWIDTH 520 0
DWIDTH 13 0
BBX 12 8 0 10
BITMAP
F9F0
F9F0
F9F0
F9F0
F9F0
3870
3870
3870
ENDCHAR
STARTCHAR 0023
ENCODING 35
SWIDTH 520 0
DWIDTH 13 0
BBX 13 18 0 0
BITMAP
1DC0
1DC0
1DC0
1DC0
1DC0
FFF0
FFF8
FFF0
1DC0
1DC0
FFF0
FFF8
FFF0
1DC0
1DC0
1DC0
1DC0
1DC0
ENDCHAR
STARTCHAR 0024
ENCODING 36
SWIDTH 1040 0
DWIDTH 26 0
BBX 10 16 1 1
BITMAP
0E00
0E00
3F80
7F80
FF80
F800
FF00
FF80
7FC0
3FC0
07C0
7FC0
7F80
7F80
0E00
0E00
ENDCHAR
STARTCHAR 0025
ENCODING 37
SWIDTH 600 0
DWIDTH 15 0
BBX 14 17 0 0
BITMAP
F9F0
FBE0
FBE0
FBE0
FFC0
07C0
07C0
07C0
0F80
0F80
0F80
0F80
1F7C
1F7C
1F7C
3E7C
3E7C
ENDCHAR
STARTCHAR 0026
ENCODING 38
SWIDTH 560 0
DWIDTH 14 0
BBX 11 18 1 0
BITMAP
3F80
7F80
FF80
F800
F800
F9C0
F9C0
7FC0
7F80
3FC0
79C0
F9C0
F9C0
F9C0
F9C0
FFE0
7FE0
3FE0
ENDCHAR
STARTCHAR 0027
ENCODING 39
SWIDTH 240 0
DWIDTH 6 0
BBX 5 8 0 10
BITMAP
F8
F8
F8
F8
F8
38
38
38
ENDCHAR
STARTCHAR 0028
ENCODING 40
SWIDTH 280 0
DWIDTH 7 0
BBX 8 25 0 -5
BITMAP
3F
7F
FF
F8
F8
F8
F8
F8
F8
F8
F8
F8
F8
F8
F8
F8
F8
F8
F8
F8
F8
F8
FF
7F
3F
ENDCHAR
STARTCHAR 0029
ENCODING 41
SWIDTH 280 0
DWIDTH 7 0
BBX 8 25 0 -5
BITMAP
FC
FE
3E
3F
3F
3F
3F
3F
3F
3F
3F
3F
3F
3F
3F
3F
3F
3F
3F
3F
3F
3F
FE
FE
FC
ENDCHAR
STARTCHAR 002A
ENCODING 42
SWIDTH 440 0
DWIDTH 11 0
BBX 6 6 3 5
BITMAP
44
EC
7C
78
7C
EC
ENDCHAR
STARTCHAR 002B
ENCODING 43
SWIDTH 440 0
DWIDTH 11 0
BBX 10 8 2 5
BITMAP
1E00
1E00
7F80
FFC0
7F80
1E00
1E00
0C00
ENDCHAR
STARTCHAR 002C
ENCODING 44
SWIDTH 240 0
DWIDTH 6 0
BBX 5 7 0 -2
BITMAP
F8
F8
F8
F8
F8
38
38
ENDCHAR
STARTCHAR 002D
ENCODING 45
SWIDTH 440 0
DWIDTH 11 0
BBX 10 2 0 8
BITMAP
FFC0
FFC0
ENDCHAR
STARTCHAR 002E
ENCODING 46
SWIDTH 240 0
DWIDTH 6 0
BBX 5 5 0 0
BITMAP
F8
F8
F8
F8
F8
ENDCHAR
STARTCHAR 002F
ENCODING 47
SWIDTH 360 0
DWIDTH 9 0
BBX 10 17 0 0
BITMAP
07C0
07C0
0F80
0F80
0F80
1F00
1F00
1F00
1F00
3E00
3E00
3E00
3E00
7C00
7C00
7C00
F800
ENDCHAR
STARTCHAR 0030
ENCODING 48
SWIDTH 440 0
DWIDTH 11 0
BBX 10 18 0 0
BITMAP
3F00
7F80
FFC0
F9C0
F9C0
F9C0
F9C0
F9C0
F9C0
F9C0
F9C0
F9C0
F9C0
F9C0
F9C0
FFC0
7F80
3F00
ENDCHAR
STARTCHAR 0031
ENCODING 49
SWIDTH 360 0
DWIDTH 9 0
BBX 8 18 0 0
BITMAP
FF
FF
FF
1F
1F
1F
1F
1F
1F
1F
1F
1F
1F
1F
1F
1F
1F
1F
ENDCHAR
STARTCHAR 0032
ENCODING 50
SWIDTH 440 0
DWIDTH 11 0
BBX 10 18 0 0
BITMAP
FF00
FF80
FFC0
07C0
07C0
07C0
07C0
07C0
7FC0
FF80
FC00
F800
F800
F800
F800
FFC0
FFC0
FFC0
ENDCHAR
STARTCHAR 0033
ENCODING 51
SWIDTH 440 0
DWIDTH 11 0
BBX 10 18 0 0
BITMAP
FF00
FF80
FFC0
07C0
07C0
07C0
07C0
FF80
FF00
FF00
0780
07C0
07C0
07C0
07C0
FFC0
FF80
FF00
ENDCHAR
STARTCHAR 0034
ENCODING 52
SWIDTH 480 0
DWIDTH 12 0
BBX 11 18 0 0
BITMAP
67C0
67C0
67C0
67C0
67C0
E7C0
C7C0
FFE0
FFE0
FFE0
07C0
07C0
07C0
07C0
07C0
07C0
07C0
07C0
ENDCHAR
STARTCHAR 0035
ENCODING 53
SWIDTH 440 0
DWIDTH 11 0
BBX 10 18 0 0
BITMAP
FF80
FF80
FF80
F800
F800
F800
F800
F800
FF80
FF80
0FC0
07C0
07C0
07C0
07C0
FFC0
FF80
FF00
ENDCHAR
STARTCHAR 0036
ENCODING 54
SWIDTH 440 0
DWIDTH 11 0
BBX 10 18 0 0
BITMAP
3F80
7F80
FF80
F800
F800
F800
F800
FF00
FF80
FFC0
F9C0
F9C0
F9C0
F9C0
F9C0
FFC0
7F80
3F00
ENDCHAR
STARTCHAR 0037
ENCODING 55
SWIDTH 440 0
DWIDTH 11 0
BBX 10 18 0 0
BITMAP
FFC0
FFC0
FFC0
07C0
07C0
0FC0
0F80
0F80
0F80
0F80
0F80
1F80
1F00
1F00
1F00
1F00
1F00
1E00
ENDCHAR
STARTCHAR 0038
ENCODING 56
SWIDTH 440 0
DWIDTH 11 0
BBX 10 18 0 0
BITMAP
3F00
7F80
FFC0
E3C0
E3C0
E3C0
E3C0
E380
FF00
FF00
E380
E3C0
E3C0
E3C0
E3C0
FFC0
7F80
3F00
ENDCHAR
STARTCHAR 0039
ENCODING 57
SWIDTH 440 0
DWIDTH 11 0
BBX 10 18 0 0
BITMAP
3F00
7F80
FFC0
E7C0
E7C0
E7C0
E7C0
E7C0
FFC0
7FC0
3FC0
07C0
07C0
07C0
07C0
07C0
07C0
07C0
ENDCHAR
STARTCHAR 003A
ENCODING 58
SWIDTH 240 0
DWIDTH 6 0
BBX 5 13 0 0
BITMAP
F8
F8
F8
F8
F8
00
00
00
F8
F8
F8
F8
F8
ENDCHAR
STARTCHAR 003B
ENCODING 59
SWIDTH 240 0
DWIDTH 6 0
BBX 5 15 0 -2
BITMAP
F8
F8
F8
F8
F8
00
00
00
F8
F8
F8
F8
F8
38
38
ENDCHAR
STARTCHAR 003C
ENCODING 60
SWIDTH 200 0
DWIDTH 5 0
BBX 4 6 0 6
BITMAP
10
30
70
70
30
10
ENDCHAR
STARTCHAR 003D
ENCODING 61
SWIDTH 440 0
DWIDTH 11 0
BBX 10 8 0 5
BITMAP
FFC0
FFC0
FFC0
0000
0000
FFC0
FFC0
FFC0
ENDCHAR
STARTCHAR 003E
ENCODING 62
SWIDTH 200 0
DWIDTH 5 0
BBX 4 6 0 6
BITMAP
C0
E0
70
70
E0
C0
ENDCHAR
STARTCHAR 003F
ENCODING 63
SWIDTH 520 0
DWIDTH 13 0
BBX 13 18 0 0
BITMAP
3FE0
7FF0
FFF8
E0F8
E0F8
00F8
00F8
00F8
1FF8
1FF0
1F00
1F00
1F00
0000
0000
1F00
1F00
1F00
ENDCHAR
STARTCHAR 0040
ENCODING 64
SWIDTH 600 0
DWIDTH 15 0
BBX 14 18 0 0
BITMAP
3FF0
7FF8
FFFC
E01C
E01C
E79C
EFDC
FFFC
FCFC
FCFC
FFFC
EFFC
E7FC
E000
E000
FFFC
7FFC
3FFC
ENDCHAR
STARTCHAR 0041
ENCODING 65
SWIDTH 440 0
DWIDTH 11 0
BBX 10 18 0 0
BITMAP
3F00
7F80
FFC0
E7C0
E7C0
E7C0
E7C0
E7C0
FFC0
FFC0
FFC0
E7C0
E7C0
E7C0
E7C0
E7C0
E7C0
E7C0
ENDCHAR
STARTCHAR 0042
ENCODING 66
SWIDTH 440 0
DWIDTH 11 0
BBX 10 18 0 0
BITMAP
FF00
FF80
FFC0
F9C0
F9C0
F9C0
F9C0
F9C0
FF80
FFC0
FFC0
F9C0
F9C0
F9C0
F9C0
FFC0
FF80
FF00
ENDCHAR
STARTCHAR 0043
ENCODING 67
SWIDTH 400 0
DWIDTH 10 0
BBX 10 18 0 0
BITMAP
3F80
7F80
FF80
F800
F800
F800
F800
F800
F800
F800
F800
F800
F800
F800
F800
FFC0
7FC0
3FC0
ENDCHAR
STARTCHAR 0044
ENCODING 68
SWIDTH 440 0
DWIDTH 11 0
BBX 10 18 0 0
BITMAP
FF00
FF80
FFC0
E7C0
E7C0
E7C0
E7C0
E7C0
E7C0
E7C0
E7C0
E7C0
E7C0
E7C0
E7C0
FFC0
FF80
FF00
ENDCHAR
STARTCHAR 0045
ENCODING 69
SWIDTH 440 0
DWIDTH 11 0
BBX 10 18 0 0
BITMAP
3FC0
7FC0
FFC0
F800
F800
F800
F800
FF00
FF00
FF00
F800
F800
F800
F800
F800
FFC0
7FC0
3FC0
ENDCHAR
STARTCHAR 0046
ENCODING 70
SWIDTH 400 0
DWIDTH 10 0
BBX 10 18 0 0
BITMAP
3FC0
7FC0
FFC0
F800
F800
F800
F800
FF00
FF00
FF00
F800
F800
F800
F800
F800
F800
F800
F800
ENDCHAR
STARTCHAR 0047
ENCODING 71
SWIDTH 440 0
DWIDTH 11 0
BBX 10 18 0 0
BITMAP
3FC0
7FC0
FFC0
F800
F800
F800
F800
F800
FFC0
FFC0
FFC0
F9C0
F9C0
F9C0
F9C0
FFC0
7F80
3F00
ENDCHAR
STARTCHAR 0048
ENCODING 72
SWIDTH 440 0
DWIDTH 11 0
BBX 10 18 0 0
BITMAP
E7C0
E7C0
E7C0
E7C0
E7C0
E7C0
E7C0
FFC0
FFC0
FFC0
E7C0
E7C0
E7C0
E7C0
E7C0
E7C0
E7C0
E7C0
ENDCHAR
STARTCHAR 0049
ENCODING 73
SWIDTH 440 0
DWIDTH 11 0
BBX 10 18 0 0
BITMAP
FFC0
FFC0
FFC0
1F00
1F00
1F00
1F00
1F00
1F00
1F00
1F00
1F00
1F00
1F00
1F00
FFC0
FFC0
FFC0
ENDCHAR
STARTCHAR 004A
ENCODING 74
SWIDTH 440 0
DWIDTH 11 0
BBX 10 18 0 0
BITMAP
07C0
07C0
07C0
07C0
07C0
07C0
07C0
07C0
07C0
07C0
07C0
07C0
07C0
E7C0
E7C0
FFC0
7F80
3F00
ENDCHAR
STARTCHAR 004B
ENCODING 75
SWIDTH 440 0
DWIDTH 11 0
BBX 10 18 0 0
BITMAP
F8C0
F8C0
F8C0
F8C0
F8C0
F8C0
F8C0
F8C0
FF80
FFC0
F9C0
F8C0
F8C0
F8C0
F8C0
F8C0
F8C0
F8C0
ENDCHAR
STARTCHAR 004C
ENCODING 76
SWIDTH 440 0
DWIDTH 11 0
BBX 10 18 0 0
BITMAP
F800
F800
F800
F800
F800
F800
F800
F800
F800
F800
F800
F800
F800
F800
F800
FFC0
7FC0
3FC0
ENDCHAR
STARTCHAR 004D
ENCODING 77
SWIDTH 640 0
DWIDTH 16 0
BBX 15 18 0 0
BITMAP
3FF8
7FFC
FFFE
F9CE
F9CE
F9CE
F9CE
F9CE
F9CE
F9CE
F9CE
F9CE
F9CE
F9CE
F9CE
F9CE
F9CE
F9CE
ENDCHAR
STARTCHAR 004E
ENCODING 78
SWIDTH 440 0
DWIDTH 11 0
BBX 10 18 0 0
BITMAP
3F00
7F80
FFC0
F9C0
F9C0
F9C0
F9C0
F9C0
F9C0
F9C0
F9C0
F9C0
F9C0
F9C0
F9C0
F9C0
F9C0
F9C0
ENDCHAR
STARTCHAR 004F
ENCODING 79
SWIDTH 440 0
DWIDTH 11 0
BBX 10 18 0 0
BITMAP
3F00
7F80
FFC0
E7C0
E7C0
E7C0
E7C0
E7C0
E7C0
E7C0
E7C0
E7C0
E7C0
E7C0
E7C0
FFC0
7F80
3F00
ENDCHAR
STARTCHAR 0050
ENCODING 80
SWIDTH 440 0
DWIDTH 11 0
BBX 10 18 0 0
BITMAP
3F00
7F80
FFC0
F9C0
F9C0
F9C0
F9C0
F9C0
FFC0
FF80
FF00
F800
F800
F800
F800
F800
F800
F800
ENDCHAR
STARTCHAR 0051
ENCODING 81
SWIDTH 440 0
DWIDTH 11 0
BBX 10 20 0 -2
BITMAP
3F00
7F80
FFC0
E7C0
E7C0
E7C0
E7C0
E7C0
E7C0
E7C0
E7C0
E7C0
E7C0
E7C0
E7C0
FFC0
7FC0
3FC0
07C0
07C0
ENDCHAR
STARTCHAR 0052
ENCODING 82
SWIDTH 440 0
DWIDTH 11 0
BBX 10 18 0 0
BITMAP
FF00
FF80
FFC0
F8C0
F8C0
F8C0
F8C0
F8C0
FF80
FFC0
F9C0
F8C0
F8C0
F8C0
F8C0
F8C0
F8C0
F8C0
ENDCHAR
STARTCHAR 0053
ENCODING 83
SWIDTH 440 0
DWIDTH 11 0
BBX 10 18 0 0
BITMAP
3F80
7F80
FF80
F800
F800
F800
F800
F800
FF80
7F80
0FC0
07C0
07C0
07C0
07C0
7FC0
7F80
7F00
ENDCHAR
STARTCHAR 0054
ENCODING 84
SWIDTH 440 0
DWIDTH 11 0
BBX 11 18 0 0
BITMAP
FFE0
FFE0
FFE0
1F00
1F00
1F00
1F00
1F00
1F00
1F00
1F00
1F00
1F00
1F00
1F00
1F00
1F00
1F00
ENDCHAR
STARTCHAR 0055
ENCODING 85
SWIDTH 440 0
DWIDTH 11 0
BBX 10 18 0 0
BITMAP
E7C0
E7C0
E7C0
E7C0
E7C0
E7C0
E7C0
E7C0
E7C0
E7C0
E7C0
E7C0
E7C0
E7C0
E7C0
FFC0
7F80
3F00
ENDCHAR
STARTCHAR 0056
ENCODING 86
SWIDTH 440 0
DWIDTH 11 0
BBX 10 18 0 0
BITMAP
E7C0
E7C0
E7C0
E7C0
E7C0
E7C0
E7C0
E7C0
E7C0
E7C0
E7C0
E7C0
E7C0
E7C0
7F80
7F80
3F00
3F00
ENDCHAR
STARTCHAR 0057
ENCODING 87
SWIDTH 640 0
DWIDTH 16 0
BBX 15 18 0 0
BITMAP
E73E
E73E
E73E
E73E
E73E
E73E
E73E
E73E
E73E
E73E
E73E
E73E
E73E
E73E
E73E
FFFE
7FFC
3FF8
ENDCHAR
STARTCHAR 0058
ENCODING 88
SWIDTH 440 0
DWIDTH 11 0
BBX 10 18 0 0
BITMAP
71C0
71C0
71C0
71C0
71C0
71C0
71C0
71C0
3F80
7F80
7BC0
71C0
71C0
71C0
71C0
71C0
71C0
71C0
ENDCHAR
STARTCHAR 0059
ENCODING 89
SWIDTH 440 0
DWIDTH 11 0
BBX 11 18 0 0
BITMAP
E0E0
E0E0
E0E0
E0E0
E0E0
E0E0
E0E0
E0E0
7FE0
3FC0
1F00
1F00
1F00
1F00
1F00
1F00
1F00
1F00
ENDCHAR
STARTCHAR 005A
ENCODING 90
SWIDTH 440 0
DWIDTH 11 0
BBX 10 18 0 0
BITMAP
FFC0
FFC0
FFC0
0FC0
0F80
1F80
1F00
1F00
3F00
3E00
7E00
7C00
7C00
FC00
F800
FFC0
FFC0
FFC0
ENDCHAR
STARTCHAR 005B
ENCODING 91
SWIDTH 280 0
DWIDTH 7 0
BBX 8 25 0 -5
BITMAP
FF
FF
FF
F8
F8
F8
F8
F8
F8
F8
F8
F8
F8
F8
F8
F8
F8
F8
F8
F8
F8
F8
FF
FF
FF
ENDCHAR
STARTCHAR 005C
ENCODING 92
SWIDTH 360 0
DWIDTH 9 0
BBX 10 17 0 0
BITMAP
F800
7C00
7C00
7C00
7E00
3E00
3E00
3E00
1F00
1F00
1F00
1F00
0F80
0F80
0F80
0FC0
07C0
ENDCHAR
STARTCHAR 005D
ENCODING 93
SWIDTH 280 0
DWIDTH 7 0
BBX 8 25 0 -5
BITMAP
FE
FF
3F
3F
3F
3F
3F
3F
3F
3F
3F
3F
3F
3F
3F
3F
3F
3F
3F
3F
3F
3F
FF
FF
FE
ENDCHAR
STARTCHAR 005E
ENCODING 94
SWIDTH 440 0
DWIDTH 11 0
BBX 7 4 2 16
BITMAP
38
7C
FE
C6
ENDCHAR
STARTCHAR 005F
ENCODING 95
SWIDTH 440 0
DWIDTH 11 0
BBX 10 3 0 0
BITMAP
FFC0
FFC0
FFC0
ENDCHAR
STARTCHAR 0061
ENCODING 97
SWIDTH 440 0
DWIDTH 11 0
BBX 10 13 0 0
BITMAP
7F00
7F80
7FC0
07C0
07C0
3FC0
7FC0
FFC0
E7C0
E7C0
FFC0
7FC0
3FC0
ENDCHAR
STARTCHAR 0062
ENCODING 98
SWIDTH 440 0
DWIDTH 11 0
BBX 10 18 0 0
BITMAP
F800
F800
F800
F800
F800
FF00
FF80
FFC0
F9C0
F9C0
F9C0
F9C0
F9C0
F9C0
F9C0
FFC0
FF80
FF00
ENDCHAR
STARTCHAR 0063
ENCODING 99
SWIDTH 440 0
DWIDTH 11 0
BBX 10 13 0 0
BITMAP
3F80
7F80
FF80
F800
F800
F800
F800
F800
F800
F800
FFC0
7FC0
3FC0
ENDCHAR
STARTCHAR 0064
ENCODING 100
SWIDTH 440 0
DWIDTH 11 0
BBX 10 18 0 0
BITMAP
07C0
07C0
07C0
07C0
07C0
3FC0
7FC0
FFC0
E7C0
E7C0
E7C0
E7C0
E7C0
E7C0
E7C0
FFC0
7FC0
3FC0
ENDCHAR
STARTCHAR 0065
ENCODING 101
SWIDTH 440 0
DWIDTH 11 0
BBX 10 13 0 0
BITMAP
3F00
7F80
FFC0
F9C0
F9C0
FFC0
FFC0
FFC0
F800
F800
FF80
7F80
3F80
ENDCHAR
STARTCHAR 0066
ENCODING 102
SWIDTH 440 0
DWIDTH 11 0
BBX 11 18 0 0
BITMAP
07E0
0FE0
1FE0
1F00
1F00
FFE0
FFE0
FFE0
1F00
1F00
1F00
1F00
1F00
1F00
1F00
1F00
1F00
1F00
ENDCHAR
STARTCHAR 0067
ENCODING 103
SWIDTH 440 0
DWIDTH 11 0
BBX 10 18 0 -5
BITMAP
3F00
7F80
FFC0
E7C0
E7C0
E7C0
E7C0
E7C0
E7C0
E7C0
FFC0
7FC0
3FC0
07C0
07C0
7FC0
7F80
7F00
ENDCHAR
STARTCHAR 0068
ENCODING 104
SWIDTH 440 0
DWIDTH 11 0
BBX 10 18 0 0
BITMAP
F800
F800
F800
F800
F800
FF00
FF80
FFC0
F9C0
F9C0
F9C0
F9C0
F9C0
F9C0
F9C0
F9C0
F9C0
F9C0
ENDCHAR
STARTCHAR 0069
ENCODING 105
SWIDTH 240 0
DWIDTH 6 0
BBX 5 18 0 0
BITMAP
F8
F8
F8
00
00
F8
F8
F8
F8
F8
F8
F8
F8
F8
F8
F8
F8
F8
ENDCHAR
STARTCHAR 006A
ENCODING 106
SWIDTH 360 0
DWIDTH 9 0
BBX 8 23 0 -5
BITMAP
1F
1F
1F
00
00
1F
1F
1F
1F
1F
1F
1F
1F
1F
1F
1F
1F
1F
1F
1F
FF
FE
FC
ENDCHAR
STARTCHAR 006B
ENCODING 107
SWIDTH 440 0
DWIDTH 11 0
BBX 10 18 0 0
BITMAP
F800
F800
F800
F800
F800
F9C0
F9C0
F9C0
F9C0
F9C0
FFC0
FF80
FFC0
F9C0
F9C0
F9C0
F9C0
F9C0
ENDCHAR
STARTCHAR 006C
ENCODING 108
SWIDTH 240 0
DWIDTH 6 0
BBX 5 18 0 0
BITMAP
F8
F8
F8
F8
F8
F8
F8
F8
F8
F8
F8
F8
F8
F8
F8
F8
F8
F8
ENDCHAR
STARTCHAR 006D
ENCODING 109
SWIDTH 640 0
DWIDTH 16 0
BBX 15 13 0 0
BITMAP
3FF8
7FFC
FFFE
F9CE
F9CE
F9CE
F9CE
F9CE
F9CE
F9CE
F9CE
F9CE
F9CE
ENDCHAR
STARTCHAR 006E
ENCODING 110
SWIDTH 440 0
DWIDTH 11 0
BBX 10 13 0 0
BITMAP
3F00
7F80
FFC0
F9C0
F9C0
F9C0
F9C0
F9C0
F9C0
F9C0
F9C0
F9C0
F9C0
ENDCHAR
STARTCHAR 006F
ENCODING 111
SWIDTH 440 0
DWIDTH 11 0
BBX 10 13 0 0
BITMAP
3F00
7F80
FFC0
E7C0
E7C0
E7C0
E7C0
E7C0
E7C0
E7C0
FFC0
7F80
3F00
ENDCHAR
STARTCHAR 0070
ENCODING 112
SWIDTH 440 0
DWIDTH 11 0
BBX 10 18 0 -5
BITMAP
3F00
7F80
FFC0
F9C0
F9C0
F9C0
F9C0
F9C0
F9C0
F9C0
FFC0
FF80
FF00
F800
F800
F800
F800
F800
ENDCHAR
STARTCHAR 0071
ENCODING 113
SWIDTH 440 0
DWIDTH 11 0
BBX 10 18 0 -5
BITMAP
3F00
7F80
FFC0
E7C0
E7C0
E7C0
E7C0
E7C0
E7C0
E7C0
FFC0
7FC0
3FC0
07C0
07C0
07C0
07C0
07C0
ENDCHAR
STARTCHAR 0072
ENCODING 114
SWIDTH 400 0
DWIDTH 10 0
BBX 9 13 0 0
BITMAP
3F80
7F80
FF80
F800
F800
F800
F800
F800
F800
F800
F800
F800
F800
ENDCHAR
STARTCHAR 0073
ENCODING 115
SWIDTH 440 0
DWIDTH 11 0
BBX 10 13 0 0
BITMAP
3F80
7F80
FF80
F800
F800
FF00
7F80
3FC0
07C0
07C0
7FC0
7F80
7F00
ENDCHAR
STARTCHAR 0074
ENCODING 116
SWIDTH 440 0
DWIDTH 11 0
BBX 11 18 0 0
BITMAP
1F00
1F00
1F00
1F00
1F00
FFE0
FFE0
FFE0
1F00
1F00
1F00
1F00
1F00
1F00
1F00
1FE0
0FE0
07E0
ENDCHAR
STARTCHAR 0075
ENCODING 117
SWIDTH 440 0
DWIDTH 11 0
BBX 10 13 0 0
BITMAP
E7C0
E7C0
E7C0
E7C0
E7C0
E7C0
E7C0
E7C0
E7C0
E7C0
FFC0
7F80
3F00
ENDCHAR
STARTCHAR 0076
ENCODING 118
SWIDTH 440 0
DWIDTH 11 0
BBX 10 13 0 0
BITMAP
E7C0
E7C0
E7C0
E7C0
E7C0
E7C0
E7C0
E7C0
67C0
7F80
7F80
3F00
3F00
ENDCHAR
STARTCHAR 0077
ENCODING 119
SWIDTH 640 0
DWIDTH 16 0
BBX 15 13 0 0
BITMAP
E73E
E73E
E73E
E73E
E73E
E73E
E73E
E73E
E73E
E73E
FFFE
7FFC
3FF8
ENDCHAR
STARTCHAR 0078
ENCODING 120
SWIDTH 440 0
DWIDTH 11 0
BBX 10 13 0 0
BITMAP
E7C0
E7C0
E7C0
E7C0
E7C0
FF80
7E00
FF80
E7C0
E7C0
E7C0
E7C0
E7C0
ENDCHAR
STARTCHAR 0079
ENCODING 121
SWIDTH 440 0
DWIDTH 11 0
BBX 10 18 0 -5
BITMAP
E7C0
E7C0
E7C0
E7C0
E7C0
E7C0
E7C0
E7C0
E7C0
E7C0
FFC0
7FC0
3FC0
07C0
07C0
7FC0
7F80
7F00
ENDCHAR
STARTCHAR 007A
ENCODING 122
SWIDTH 440 0
DWIDTH 11 0
BBX 10 13 0 0
BITMAP
FFC0
FFC0
FFC0
0F80
1F80
3F00
3E00
7E00
FC00
FC00
FFC0
FFC0
FFC0
ENDCHAR
STARTCHAR 007B
ENCODING 123
SWIDTH 360 0
DWIDTH 9 0
BBX 11 25 0 -5
BITMAP
07E0
0FE0
1FE0
1F00
1F00
1F00
1F00
1F00
1F00
1F00
FE00
F800
FE00
1F00
1F00
1F00
1F00
1F00
1F00
1F00
1F00
1F00
1FE0
0FE0
07E0
ENDCHAR
STARTCHAR 007C
ENCODING 124
SWIDTH 240 0
DWIDTH 6 0
BBX 5 25 0 -5
BITMAP
F8
F8
F8
F8
F8
F8
F8
F8
F8
F8
F8
F8
F8
F8
F8
F8
F8
F8
F8
F8
F8
F8
F8
F8
F8
ENDCHAR
STARTCHAR 007D
ENCODING 125
SWIDTH 360 0
DWIDTH 9 0
BBX 10 25 0 -5
BITMAP
FC00
FE00
3E00
3F00
3F00
3F00
3F00
3F00
1F00
1F00
0FC0
0FC0
1F00
1F00
3F00
3F00
3F00
3F00
3F00
3F00
3F00
3F00
FE00
FE00
FC00
ENDCHAR
STARTCHAR 2010
ENCODING 8208
SWIDTH 440 0
DWIDTH 11 0
BBX 10 2 0 8
BITMAP
FFC0
FFC0
ENDCHAR
ENDFONT
